# xmcd CD database file
# Copyright (C) 1995-1998 Ti Kan
#
# Track frame offsets:
#	150
#	26141
#	48169
#	67309
#	86355
#	103202
#	132015
#	147891
#	172222
#	190223
#	207285
#	227961
#	254505
#	272947
#	299188
#	317630
#	339195
#
# Disc length: 4796 seconds
#
# Revision: 3
# Processed by: cddbd v1.4PL0 Copyright (c) Steve Scherf et al.
# Submitted via: CDex 1.30Release
#
DISCID=1212ba11
DTITLE=Dire Straits - All Times Hits
DYEAR=2002
DGENRE=Blues
TTITLE0=Sultans Of Swing
TTITLE1=Heavy Fuel
TTITLE2=News
TTITLE3=The Bug
TTITLE4=Lady Writer
TTITLE5=Your Latest Trick
TTITLE6=Twisting By The Pool
TTITLE7=Once Upon Time In The West
TTITLE8=So Far Away
TTITLE9=Fade To Black
TTITLE10=Calling Elvis
TTITLE11=You And Your Friend
TTITLE12=Money For Nothing
TTITLE13=Private Investigations
TTITLE14=Walk Of Life
TTITLE15=Brothers In Arms
TTITLE16=On Every Street
EXTD=YEAR: 2002 ID3G:   0
EXTT0=
EXTT1=
EXTT2=
EXTT3=
EXTT4=
EXTT5=
EXTT6=
EXTT7=
EXTT8=
EXTT9=
EXTT10=
EXTT11=
EXTT12=
EXTT13=
EXTT14=
EXTT15=
EXTT16=
PLAYORDER=
